# xmcd
#
# Track frame offsets:
#	150
#	10328
#	22760
#	37265
#	54885
#
# Disc length: 848 seconds
#
# Revision: 0
# Processed by: cddbd v1.5.2PL0 Copyright (c) Steve Scherf et al.
# Submitted via: EasyCDDAExtractor 10.0.6.1
#
DISCID=31034e05
DTITLE=Various Artist - Cooke Records Presents
DYEAR=1994
DGENRE=Gospel
TTITLE0=The Singing Cookes - Lazarus
TTITLE1=The Cooke Brothers - At Calvary
TTITLE2=Terry Terrell - Everything He Touches
TTITLE3=Charles Bell - One More Chance
TTITLE4=Tom and Vonda Burress - What I Like Best
EXTD=
EXTT0=
EXTT1=
EXTT2=
EXTT3=
EXTT4=
PLAYORDER=
